<svg xmlns="http://www.w3.org/2000/svg" width="129" height="70" viewBox="0 0 99 40" fill="none">
  <path d="M39.9994 40H0V0H39.9994V40ZM0.529309 39.4707H39.4701V0.529924H0.529309V39.4707Z" fill="white"/>
  <path fill-rule="evenodd" clip-rule="evenodd" d="M13.1332 26.6844L11.3502 28.0436C10.7884 27.3352 9.84816 26.8261 8.98519 26.8261C7.34942 26.8261 6.02462 28.1926 6.02462 29.8762C6.02462 31.5605 7.34942 32.9264 8.98519 32.9264C9.8592 32.9264 10.7761 32.4339 11.3502 31.7095L13.1332 33.0687C12.1758 34.3101 10.6737 35.1105 8.98458 35.1105C6.09392 35.1105 3.75098 32.7675 3.75098 29.8769C3.75098 26.9868 6.09392 24.6439 8.98458 24.6439C10.6743 24.6426 12.1764 25.4424 13.1332 26.6844Z" fill="white"/>
  <path fill-rule="evenodd" clip-rule="evenodd" d="M21.8901 30.9741L17.1864 24.9321H15.1992V34.8253H17.3925V28.7778L22.0962 34.8253H24.0834V24.9321H21.8901V30.9741Z" fill="white"/>
  <path fill-rule="evenodd" clip-rule="evenodd" d="M33.9479 28.6943C33.9479 27.824 33.242 27.1193 32.3722 27.1193H29.5644V30.2712H32.3722C33.242 30.2712 33.9479 29.5653 33.9479 28.6943ZM32.4882 24.9321C34.5631 24.934 36.251 26.6311 36.2485 28.706C36.2461 30.7772 34.5631 32.4535 32.4882 32.4559H29.5644V34.8253H27.3711V24.9321H32.4882Z" fill="white"/>
  <path d="M44.8701 19.9996H39.999V39.9999H44.8701V19.9996Z" fill="white"/>
  <path fill-rule="evenodd" clip-rule="evenodd" d="M19.9355 18.562C25.1495 11.8644 33.2885 7.55566 42.4346 7.55566C51.5807 7.55566 59.719 11.8644 64.9336 18.562H58.3206C54.1248 14.7489 48.5508 12.4249 42.4346 12.4249C36.3184 12.4249 30.7444 14.7489 26.5492 18.562H19.9355Z" fill="white"/>
  <path d="M54.939 30.0713C54.7992 29.9167 54.5618 29.7683 54.2257 29.6254C53.8896 29.4825 53.5437 29.4113 53.1873 29.4113C52.7654 29.4113 52.4495 29.4892 52.2404 29.6456C52.0306 29.8014 51.9263 30.0222 51.9263 30.3074C51.9263 30.3964 51.938 30.4767 51.9619 30.5479C51.9858 30.619 52.0159 30.6822 52.0533 30.7374C52.0907 30.7926 52.1459 30.8453 52.2207 30.8956C52.2949 30.9459 52.3685 30.9895 52.4415 31.025C52.5145 31.0606 52.6139 31.0986 52.7402 31.1385C52.8666 31.1784 52.9843 31.2127 53.0947 31.2409C53.2045 31.2691 53.3487 31.3053 53.5271 31.3501C53.8123 31.4182 54.0558 31.4863 54.2582 31.5531C54.46 31.62 54.6551 31.7046 54.8421 31.807C55.0292 31.9095 55.1795 32.0242 55.2923 32.1505C55.4052 32.2769 55.4953 32.4308 55.5622 32.6117C55.629 32.7933 55.6622 32.9994 55.6622 33.2312C55.6622 33.4894 55.6211 33.7231 55.5395 33.931C55.4579 34.1389 55.3457 34.3144 55.2028 34.4573C55.0599 34.6002 54.8875 34.7198 54.6857 34.8161C54.4839 34.913 54.2668 34.9823 54.035 35.0258C53.8031 35.0688 53.5535 35.0902 53.2861 35.0902C52.793 35.0902 52.3158 35.0154 51.8552 34.8651C51.3946 34.7149 50.9799 34.499 50.6113 34.2168L51.0793 33.3385C51.2664 33.5317 51.5718 33.7182 51.9956 33.8979C52.4194 34.0776 52.8549 34.1678 53.3039 34.1678C53.7081 34.1678 54.019 34.0966 54.238 33.9537C54.4563 33.8108 54.5655 33.606 54.5655 33.3385C54.5655 33.2318 54.549 33.1349 54.5164 33.049C54.4839 32.9626 54.4275 32.8847 54.3472 32.8147C54.2668 32.7448 54.1846 32.6847 54.1 32.6344C54.0153 32.5841 53.8951 32.532 53.7387 32.4786C53.5823 32.4253 53.44 32.3805 53.3106 32.3449C53.1812 32.3094 53.0064 32.2634 52.7868 32.2069C52.4452 32.118 52.1631 32.0272 51.9398 31.9352C51.7166 31.8432 51.5203 31.7304 51.3492 31.5967C51.1781 31.463 51.0542 31.3047 50.9769 31.1219C50.8996 30.9392 50.861 30.7233 50.861 30.4736C50.861 30.1615 50.9211 29.8799 51.0413 29.6291C51.1615 29.3782 51.3271 29.1709 51.5381 29.0072C51.7491 28.844 51.9975 28.7189 52.2827 28.6324C52.5679 28.5465 52.8782 28.503 53.2143 28.503C54.0104 28.503 54.7403 28.7465 55.4027 29.2341L54.939 30.0713Z" fill="white"/>
  <path d="M58.4898 35.1172C58.0053 35.1172 57.5729 35.0044 57.1926 34.7787C56.8124 34.553 56.521 34.2543 56.3186 33.8826C56.1168 33.5109 56.0156 33.1024 56.0156 32.6565C56.0156 32.321 56.0757 32.0015 56.1959 31.6979C56.3162 31.3949 56.4818 31.1305 56.6928 30.9042C56.9037 30.6785 57.1656 30.4994 57.4797 30.3669C57.7931 30.2344 58.1329 30.1688 58.4984 30.1688C58.864 30.1688 59.2007 30.2357 59.508 30.3694C59.8153 30.5031 60.0722 30.6822 60.2789 30.9067C60.4856 31.1311 60.6457 31.39 60.7604 31.6844C60.8745 31.9788 60.9321 32.2861 60.9321 32.6068C60.9321 32.6903 60.9229 32.8117 60.9051 32.9724H57.0804C57.1098 33.3858 57.2638 33.7237 57.5416 33.9862C57.8194 34.2494 58.147 34.3806 58.5242 34.3806C58.7977 34.3806 59.0516 34.3131 59.2865 34.1776C59.5215 34.0427 59.6834 33.866 59.7723 33.6495L60.6328 33.8948C60.4635 34.2604 60.1869 34.5554 59.8036 34.7799C59.4203 35.0044 58.9836 35.1172 58.4898 35.1172ZM57.0546 32.3087H59.9385C59.903 31.896 59.749 31.5593 59.4773 31.2992C59.2056 31.0391 58.8762 30.9091 58.4898 30.9091C58.1065 30.9091 57.7784 31.0404 57.5048 31.3035C57.2319 31.5666 57.0816 31.9021 57.0546 32.3087Z" fill="white"/>
  <path d="M61.2354 32.643C61.2354 32.1916 61.328 31.7776 61.5138 31.4016C61.6996 31.0257 61.9622 30.7263 62.3026 30.5037C62.643 30.2811 63.0257 30.1694 63.4501 30.1694C63.8187 30.1694 64.1493 30.2578 64.4419 30.4344C64.7344 30.611 64.9792 30.8527 65.1754 31.1587V30.2541H66.0623V34.8897C66.0623 35.3386 65.9507 35.7293 65.728 36.0618C65.5054 36.3948 65.2036 36.6451 64.8234 36.8131C64.4431 36.9812 64.0107 37.0652 63.5262 37.0652C62.5632 37.0652 61.8291 36.7236 61.3243 36.0397L61.8904 35.5134C62.0689 35.7661 62.3026 35.96 62.5927 36.0949C62.8822 36.2298 63.1937 36.2979 63.5268 36.2979C63.8089 36.2979 64.0635 36.2494 64.2892 36.1532C64.5149 36.0562 64.7001 35.8992 64.8442 35.6809C64.9884 35.4625 65.0607 35.1988 65.0607 34.8897V34.1586C64.8945 34.4407 64.6621 34.664 64.3634 34.8271C64.0647 34.9909 63.7488 35.0725 63.4164 35.0725C63.0005 35.0725 62.6239 34.9596 62.2866 34.7339C61.9493 34.5082 61.6898 34.2107 61.5089 33.8421C61.3261 33.4741 61.2354 33.0742 61.2354 32.643ZM65.0595 33.3116V32.0591C64.9405 31.7592 64.7504 31.5126 64.4891 31.3194C64.2278 31.1262 63.9543 31.0299 63.6691 31.0299C63.39 31.0299 63.1404 31.1109 62.9202 31.2728C62.7 31.4348 62.5344 31.6396 62.4234 31.888C62.3118 32.1364 62.2566 32.3983 62.2566 32.6749C62.2566 33.1116 62.4007 33.4857 62.689 33.7961C62.9772 34.1064 63.3293 34.2616 63.7451 34.2616C64.0395 34.2616 64.3137 34.1678 64.5676 33.9807C64.8215 33.793 64.9853 33.5704 65.0595 33.3116Z" fill="white"/>
  <path d="M66.9932 33.1735V30.254H67.996V32.973C67.996 33.398 68.0733 33.7188 68.2278 33.9359C68.3824 34.153 68.6093 34.2616 68.9098 34.2616C69.2012 34.2616 69.4735 34.172 69.728 33.9917C69.982 33.812 70.1776 33.5587 70.3144 33.2318V30.254H71.3215V33.896C71.3215 34.0119 71.3423 34.0954 71.384 34.1457C71.4257 34.1959 71.4957 34.2229 71.5938 34.226V35.0282C71.4184 35.0577 71.27 35.073 71.1479 35.073C70.9639 35.073 70.8093 35.0233 70.6842 34.924C70.5591 34.8246 70.491 34.6946 70.4794 34.5339L70.4616 34.0616C70.2506 34.4033 69.9752 34.6651 69.6348 34.8461C69.2944 35.0276 68.9197 35.1178 68.5093 35.1178C68.0131 35.1178 67.6366 34.9534 67.3796 34.6253C67.122 34.2965 66.9932 33.8126 66.9932 33.1735Z" fill="white"/>
  <path d="M75.0515 31.1189C74.6596 31.1281 74.3124 31.2188 74.0107 31.393C73.7089 31.5666 73.4961 31.8052 73.371 32.1082V35.0277H72.3682V30.2535H73.2998V31.3231C73.466 30.9962 73.6825 30.7331 73.9487 30.5344C74.2143 30.335 74.4977 30.2271 74.7976 30.2087C74.9252 30.2087 75.0098 30.2117 75.0515 30.2179V31.1189Z" fill="white"/>
  <path d="M75.1934 33.633C75.1934 33.1785 75.3823 32.8123 75.7595 32.5339C76.1367 32.256 76.6273 32.1174 77.2302 32.1174C77.7148 32.1174 78.1294 32.1812 78.4741 32.3088V32.0058C78.4741 31.6703 78.3717 31.4078 78.1668 31.2189C77.962 31.03 77.6737 30.9361 77.302 30.9361C77.0462 30.9361 76.7997 30.9809 76.5623 31.0698C76.3243 31.1587 76.0661 31.2943 75.7865 31.4752L75.4522 30.8024C76.0851 30.3804 76.739 30.1694 77.4136 30.1694C78.0583 30.1694 78.5636 30.3393 78.9292 30.6797C79.2947 31.0201 79.4775 31.4991 79.4775 32.1174V33.8961C79.4775 34.0089 79.4978 34.0917 79.5376 34.1432C79.5775 34.1948 79.6456 34.223 79.7406 34.2254V35.0277C79.5799 35.0571 79.4376 35.0725 79.3125 35.0725C79.1101 35.0725 78.9519 35.0234 78.8378 34.9253C78.7231 34.8271 78.6556 34.7038 78.6348 34.5554L78.6078 34.2788C78.4029 34.5431 78.1404 34.7492 77.8209 34.8964C77.5013 35.0436 77.1738 35.1172 76.8383 35.1172C76.363 35.1172 75.9698 34.9755 75.6595 34.6916C75.3491 34.4076 75.1934 34.0549 75.1934 33.633ZM78.2337 33.9224C78.3944 33.7618 78.4741 33.6133 78.4741 33.4765V32.9282C78.1233 32.7945 77.7577 32.7277 77.3775 32.7277C77.0088 32.7277 76.7107 32.8019 76.4838 32.9503C76.2563 33.0987 76.1428 33.2981 76.1428 33.5477C76.1428 33.7734 76.2299 33.9691 76.4035 34.134C76.577 34.299 76.8156 34.3812 77.1186 34.3812C77.3265 34.3812 77.5314 34.3383 77.7338 34.2518C77.9362 34.1666 78.103 34.0562 78.2337 33.9224Z" fill="white"/>
  <path d="M80.1621 32.643C80.1621 32.1916 80.2529 31.7776 80.4338 31.4016C80.6154 31.0257 80.8711 30.7263 81.2029 30.5037C81.5341 30.2811 81.9052 30.1694 82.3149 30.1694C82.6688 30.1694 82.9939 30.2608 83.2914 30.4436C83.5888 30.6264 83.8231 30.865 83.9955 31.1594V28.3644H84.9983V33.8961C84.9983 34.012 85.0191 34.0954 85.0608 34.1457C85.1025 34.196 85.1725 34.223 85.2706 34.226V35.0283C85.0952 35.0577 84.9498 35.0731 84.8339 35.0731C84.6468 35.0731 84.4886 35.0197 84.3592 34.9124C84.2298 34.805 84.1611 34.6732 84.1519 34.5155L84.1433 34.1592C83.9617 34.4591 83.7182 34.694 83.4122 34.8633C83.1061 35.0326 82.7804 35.1172 82.4357 35.1172C82.0046 35.1172 81.6151 35.005 81.2655 34.7805C80.9159 34.556 80.6454 34.2561 80.4522 33.8801C80.259 33.5041 80.1621 33.092 80.1621 32.643ZM83.9961 33.3116V32.0591C83.8918 31.7709 83.7047 31.5274 83.4343 31.328C83.1638 31.1287 82.8902 31.0293 82.6142 31.0293C82.3407 31.0293 82.0947 31.1072 81.8764 31.2636C81.658 31.4194 81.4906 31.6218 81.3747 31.8696C81.2588 32.118 81.2011 32.383 81.2011 32.6651C81.2011 33.1079 81.3446 33.4845 81.631 33.7949C81.9175 34.1052 82.2708 34.2604 82.6897 34.2604C82.9602 34.2604 83.2282 34.1678 83.4944 33.9819C83.7606 33.7961 83.9274 33.5735 83.9961 33.3116Z" fill="white"/>
  <path d="M85.9119 33.5882C85.7959 33.2883 85.7383 32.973 85.7383 32.643C85.7383 32.3131 85.7978 31.9984 85.9168 31.6979C86.0358 31.398 86.1989 31.1348 86.4068 30.9091C86.6147 30.6834 86.8742 30.5037 87.1845 30.37C87.4949 30.2363 87.8304 30.1694 88.1898 30.1694C88.6713 30.1694 89.1012 30.2841 89.4802 30.5129C89.8593 30.7417 90.1482 31.0434 90.3475 31.4176C90.5468 31.7917 90.6462 32.2008 90.6462 32.6436C90.6462 33.0865 90.5468 33.495 90.3475 33.8697C90.1482 34.2438 89.8593 34.5456 89.4802 34.7744C89.1012 35.0031 88.6713 35.1178 88.1898 35.1178C87.8242 35.1178 87.4863 35.051 87.1759 34.9173C86.8656 34.7836 86.6062 34.6039 86.3982 34.3782C86.1897 34.1512 86.0278 33.8881 85.9119 33.5882ZM87.1802 33.8022C87.455 34.1083 87.7917 34.2616 88.1898 34.2616C88.5878 34.2616 88.9252 34.1058 89.2018 33.7936C89.4784 33.4815 89.6164 33.0981 89.6164 32.6436C89.6164 32.1892 89.4784 31.8064 89.2018 31.4961C88.9252 31.1857 88.5878 31.0306 88.1898 31.0306C87.7948 31.0306 87.4587 31.1882 87.1827 31.5028C86.9061 31.8181 86.7681 32.2026 86.7681 32.6571C86.7675 33.1141 86.9055 33.4962 87.1802 33.8022Z" fill="white"/>
  <path d="M93.9929 31.1189C93.601 31.1281 93.2538 31.2188 92.9521 31.393C92.6503 31.5666 92.4375 31.8052 92.3124 32.1082V35.0277H91.3096V30.2535H92.2412V31.3231C92.4074 30.9962 92.6239 30.7331 92.8901 30.5344C93.1557 30.335 93.4391 30.2271 93.739 30.2087C93.8666 30.2087 93.9512 30.2117 93.9929 30.2179V31.1189Z" fill="white"/>
  <path d="M94.1348 33.633C94.1348 33.1785 94.3237 32.8123 94.7009 32.5339C95.0781 32.256 95.5687 32.1174 96.1717 32.1174C96.6562 32.1174 97.0708 32.1812 97.4155 32.3088V32.0058C97.4155 31.6703 97.3131 31.4078 97.1082 31.2189C96.9034 31.03 96.6151 30.9361 96.2434 30.9361C95.9877 30.9361 95.7411 30.9809 95.5037 31.0698C95.2658 31.1587 95.0075 31.2943 94.7279 31.4752L94.3936 30.8024C95.0266 30.3804 95.6804 30.1694 96.355 30.1694C96.9997 30.1694 97.5051 30.3393 97.8706 30.6797C98.2362 31.0201 98.4189 31.4991 98.4189 32.1174V33.8961C98.4189 34.0089 98.4392 34.0917 98.479 34.1432C98.5189 34.1948 98.587 34.223 98.682 34.2254V35.0277C98.5214 35.0571 98.3791 35.0725 98.2539 35.0725C98.0515 35.0725 97.8933 35.0234 97.7792 34.9253C97.6645 34.8271 97.5971 34.7038 97.5762 34.5554L97.5492 34.2788C97.3444 34.5431 97.0818 34.7492 96.7623 34.8964C96.4427 35.0436 96.1152 35.1172 95.7797 35.1172C95.3044 35.1172 94.9112 34.9755 94.6009 34.6916C94.2899 34.4076 94.1348 34.0549 94.1348 33.633ZM97.1745 33.9224C97.3352 33.7618 97.4149 33.6133 97.4149 33.4765V32.9282C97.0641 32.7945 96.6985 32.7277 96.3182 32.7277C95.9496 32.7277 95.6515 32.8019 95.4246 32.9503C95.1971 33.0987 95.0836 33.2981 95.0836 33.5477C95.0836 33.7734 95.1707 33.9691 95.3443 34.134C95.5178 34.299 95.7564 34.3812 96.0594 34.3812C96.2673 34.3812 96.4722 34.3383 96.6746 34.2518C96.8776 34.1666 97.0438 34.0562 97.1745 33.9224Z" fill="white"/>
</svg>